<?xml version="1.0" encoding="UTF-8"?><svg id="_лой_1" xmlns="http://www.w3.org/2000/svg" viewBox="0 0 304.22 52.78"><path d="M26.6,.56c-1.1,.3-5.6,3.7-10,7.5-12.1,10.4-11.6,10.4-11.6,.8C5,.96,5,.86,2.5,.86H0V39.86H5V18.46l4,3.9c2.3,2.2,6.7,7,9.8,10.7l5.7,6.8,5.5-.1q5.5,0,7.5-4.2l2-4.2,7.2-.3c7.1-.3,7.2-.2,8.8,2.7,.8,1.7,1.5,3.7,1.5,4.6,0,1,1,1.5,3.3,1.5h3.2l-7.2-14.7c-3.9-8.1-7.5-14.9-8-15-.5-.2-4.1,6.2-8.1,14.2-3.9,8-7.8,14.5-8.5,14.5-.8,0-5.2-4.2-9.8-9.3-12.4-13.6-11.7-12.3-8.3-15.8,1.6-1.7,5.9-5.4,9.7-8.1C31.3-.34,31.5-.64,26.6,.56Zm21.4,16.7c0,.2,1.1,2.9,2.5,6l2.5,5.6h-6c-5.8,0-5.9-.1-5.1-2.3,2.8-6.9,4.2-9.7,5.1-9.7,.6,0,1,.2,1,.4Z"/><path d="M178.7,12.06c-2.1,1.1-5,3.8-6.4,5.9-5,7.6-1.5,18.3,6.9,20.9,2.4,.7,4.8,1.8,5.5,2.2,.6,.5,1.4,.5,1.8-.2,.3-.5,1.8-1,3.3-1,3.2,0,4.6-.9,5.5-3.3,.6-1.7,.4-1.6-1.9,.2-3.4,2.7-9.3,2.7-12.6,.1-3.8-3-6-9.3-5.2-14.9,1.3-8.8,8.7-12.6,16.7-8.5l3.1,1.7-1.6-2.4c-2.1-3.3-9.7-3.7-15.1-.7Z"/><path d="M203.7,18.56c6.2,8.2,6.3,8.3,6.3,14.8s.1,6.5,2.6,6.5h2.6l-.6-6.4-.7-6.3,6-8.1c3.4-4.4,6.1-8.2,6.1-8.5s-.9-.3-2,0-2,.9-2,1.2c0,.4-2,3.3-4.5,6.5l-4.4,5.7-4.6-6.3c-3.7-4.9-5.4-6.4-7.9-6.9l-3.3-.5,6.4,8.3Z"/><path d="M247,10.76c0,.3,2.7,4,6.1,8.4l6.1,7.8-.4,6.5q-.3,6.4,2.4,6.4h2.7l-.6-6.5-.6-6.4,6.2-8.1c4.5-5.9,5.6-8,4.3-8-.9,.1-3.7,2.9-6.2,6.5-5.1,7.3-5.2,7.3-11.2-1.5-2.3-3.4-4.1-5-6-5.2-1.6-.3-2.8-.2-2.8,.1Z"/><path d="M68.5,25.36c0,10.9,.3,14.5,1.3,14.5,.9,0,1.2-2.8,1.2-10.7v-10.6l10.9,10.6c6,5.9,11.3,10.7,11.8,10.7,.4,0,.9-6.5,1-14.5,.2-12.1,0-14.5-1.2-14.5s-1.5,2-1.5,10.5c0,5.8-.1,10.5-.2,10.5-.2,0-5.2-4.8-11.1-10.5-6-5.8-11.2-10.5-11.5-10.5-.4,0-.7,6.5-.7,14.5Z"/><path d="M103.4,18.56c.3,4.2,.6,9.6,.6,12,0,3.3,.6,5,2.3,6.7,5,5,17.3,4.1,20.2-1.4,2-3.8,2.2-25,.3-25-1,0-1.2,2.6-1,10.8,.3,9.6,.1,11-1.7,13.3-1.1,1.5-3.4,2.9-5,3.2-3.7,.8-8.8-.9-10.1-3.3-.6-1-1-6.8-1-12.9V10.86h-5.3l.7,7.7Z"/><path d="M137,25.36c0,12.2,.2,14.5,1.5,14.5,1.2,0,1.5-1.9,1.5-10.7v-10.8l10.8,10.8c5.9,5.9,11.1,10.7,11.5,10.7s.7-6.5,.7-14.5c0-11.9-.3-14.5-1.4-14.5-1.2,0-1.4,1.6-.9,8.9,.9,14.1,.8,14.1-11.5,1.8-5.9-5.9-11.1-10.7-11.5-10.7s-.7,6.5-.7,14.5Z"/><path d="M230.5,25.36v14.5h8.3c6.1,0,8.2-.3,8.2-1.3s-1.5-1.2-6.1-.9l-6.1,.5,.4-13.7,.3-13.6h-5v14.5Z"/><path d="M279.5,25.36c0,14.4,0,14.5,2.3,14.5,2.1,0,2.2-.4,2.2-7.5,0-4.1,.4-7.5,.8-7.5,.5,0,4.1,3.4,8.1,7.5,5.5,5.6,8,7.5,10,7.5,2.4,0,2-.6-5.1-8.3-4.3-4.5-7.8-8.5-7.8-8.9s3-3.1,6.6-6c4.4-3.5,6.1-5.4,5-5.6-.9-.2-4.6,2.4-8.3,5.7-8.7,7.8-9.7,7.9-9.1,.1,.4-5.9,.4-6-2.1-6h-2.6v14.5Z"/><path d="M184,43.86c0,.5,.9,1.2,2,1.5,3.2,1,2.7,5.3-.7,6.1-4.8,1-4.9,1.2-.6,1.3,3.2,.1,4.5-.4,5.7-2.1,1.3-1.9,1.4-2.5,.2-4.2-1.3-2.1-6.6-4.1-6.6-2.6Z"/></svg>